<svg width="30" height="37" viewBox="0 0 30 37" fill="none" xmlns="http://www.w3.org/2000/svg">
<rect y="4" width="30" height="28.8" rx="2" fill="#2E5CFF"/>
<path d="M7.1387 27.226C6.40223 27.226 5.82476 27.0251 5.40631 26.6234C5.0046 26.2049 4.80374 25.6107 4.80374 24.8408V11.6846C4.80374 10.9147 5.0046 10.3289 5.40631 9.92714C5.82476 9.50869 6.42733 9.29946 7.21403 9.29946H15.5747C16.1773 9.29946 16.6292 9.45011 16.9305 9.75139C17.2318 10.0527 17.3824 10.4879 17.3824 11.057C17.3824 11.6428 17.2318 12.0947 16.9305 12.4128C16.6292 12.714 16.1773 12.8647 15.5747 12.8647H9.42345V16.4299H15.0223C15.6082 16.4299 16.0517 16.5805 16.353 16.8818C16.671 17.1831 16.8301 17.6183 16.8301 18.1874C16.8301 18.7732 16.671 19.2168 16.353 19.5181C16.0517 19.8194 15.6082 19.97 15.0223 19.97H9.42345V24.8408C9.42345 26.4309 8.66187 27.226 7.1387 27.226ZM22.2567 27.226C21.5537 27.226 21.0097 27.0167 20.6248 26.5983C20.2398 26.1798 20.0473 25.5773 20.0473 24.7906V16.8567C20.0473 16.07 20.2398 15.4675 20.6248 15.049C21.0097 14.6305 21.5537 14.4213 22.2567 14.4213C22.9765 14.4213 23.5288 14.6305 23.9138 15.049C24.3155 15.4675 24.5164 16.07 24.5164 16.8567V24.7906C24.5164 25.5773 24.3239 26.1798 23.9389 26.5983C23.5539 27.0167 22.9932 27.226 22.2567 27.226ZM22.2567 12.6387C21.47 12.6387 20.8591 12.4546 20.4239 12.0864C20.0055 11.7181 19.7962 11.1825 19.7962 10.4795C19.7962 9.79324 20.0055 9.26599 20.4239 8.89775C20.8591 8.52951 21.47 8.34539 22.2567 8.34539C23.0769 8.34539 23.6962 8.52951 24.1147 8.89775C24.5331 9.26599 24.7423 9.79324 24.7423 10.4795C24.7423 11.1825 24.5331 11.7181 24.1147 12.0864C23.6962 12.4546 23.0769 12.6387 22.2567 12.6387Z" fill="white"/>
</svg>
