<svg width="68" height="16" viewBox="0 0 68 16" fill="none" xmlns="http://www.w3.org/2000/svg">
<path d="M2.0143 15.16C1.60096 15.16 1.2743 15.0467 1.0343 14.82C0.80763 14.58 0.694297 14.24 0.694297 13.8V2.26C0.694297 1.82 0.80763 1.48667 1.0343 1.26C1.2743 1.02 1.6143 0.899999 2.0543 0.899999H9.0343C9.38096 0.899999 9.64096 0.986666 9.8143 1.16C9.98763 1.33333 10.0743 1.58 10.0743 1.9C10.0743 2.23333 9.98763 2.49333 9.8143 2.68C9.64096 2.85333 9.38096 2.94 9.0343 2.94H3.2543V6.92H8.6143C8.94763 6.92 9.20096 7.00667 9.3743 7.18C9.56096 7.35333 9.6543 7.6 9.6543 7.92C9.6543 8.25333 9.56096 8.51333 9.3743 8.7C9.20096 8.87333 8.94763 8.96 8.6143 8.96H3.2543V13.8C3.2543 14.7067 2.84096 15.16 2.0143 15.16ZM13.7255 15.14C13.3255 15.14 13.0189 15.02 12.8055 14.78C12.5922 14.54 12.4855 14.2067 12.4855 13.78V6.44C12.4855 6 12.5922 5.66667 12.8055 5.44C13.0189 5.2 13.3255 5.08 13.7255 5.08C14.1255 5.08 14.4322 5.2 14.6455 5.44C14.8722 5.66667 14.9855 6 14.9855 6.44V13.78C14.9855 14.2067 14.8789 14.54 14.6655 14.78C14.4522 15.02 14.1389 15.14 13.7255 15.14ZM13.7255 3.22C13.2589 3.22 12.8922 3.10667 12.6255 2.88C12.3722 2.64 12.2455 2.31333 12.2455 1.9C12.2455 1.47333 12.3722 1.14667 12.6255 0.919999C12.8922 0.693333 13.2589 0.58 13.7255 0.58C14.2055 0.58 14.5722 0.693333 14.8255 0.919999C15.0789 1.14667 15.2055 1.47333 15.2055 1.9C15.2055 2.31333 15.0789 2.64 14.8255 2.88C14.5722 3.10667 14.2055 3.22 13.7255 3.22ZM18.8232 15.16C18.4232 15.16 18.1165 15.0533 17.9032 14.84C17.6899 14.6133 17.5832 14.2933 17.5832 13.88V6.32C17.5832 5.90667 17.6899 5.59333 17.9032 5.38C18.1165 5.16667 18.4165 5.06 18.8032 5.06C19.1899 5.06 19.4899 5.16667 19.7032 5.38C19.9165 5.59333 20.0232 5.90667 20.0232 6.32V7.68L19.8032 7.18C20.0965 6.47333 20.5499 5.94 21.1632 5.58C21.7899 5.20667 22.4965 5.02 23.2832 5.02C24.0699 5.02 24.7165 5.16667 25.2232 5.46C25.7299 5.75333 26.1099 6.2 26.3632 6.8C26.6165 7.38667 26.7432 8.13333 26.7432 9.04V13.88C26.7432 14.2933 26.6365 14.6133 26.4232 14.84C26.2099 15.0533 25.9032 15.16 25.5032 15.16C25.1032 15.16 24.7899 15.0533 24.5632 14.84C24.3499 14.6133 24.2432 14.2933 24.2432 13.88V9.16C24.2432 8.4 24.0965 7.84667 23.8032 7.5C23.5232 7.15333 23.0832 6.98 22.4832 6.98C21.7499 6.98 21.1632 7.21333 20.7232 7.68C20.2965 8.13333 20.0832 8.74 20.0832 9.5V13.88C20.0832 14.7333 19.6632 15.16 18.8232 15.16ZM33.7624 15.2C32.8958 15.2 32.1691 15.0533 31.5824 14.76C31.0091 14.4667 30.5824 14.04 30.3024 13.48C30.0224 12.9067 29.8824 12.2 29.8824 11.36V7.1H28.8424C28.5224 7.1 28.2758 7.02 28.1024 6.86C27.9291 6.68667 27.8424 6.45333 27.8424 6.16C27.8424 5.85333 27.9291 5.62 28.1024 5.46C28.2758 5.3 28.5224 5.22 28.8424 5.22H29.8824V3.4C29.8824 2.98667 29.9891 2.67333 30.2024 2.46C30.4291 2.24667 30.7424 2.14 31.1424 2.14C31.5424 2.14 31.8491 2.24667 32.0624 2.46C32.2758 2.67333 32.3824 2.98667 32.3824 3.4V5.22H34.5024C34.8224 5.22 35.0691 5.3 35.2424 5.46C35.4158 5.62 35.5024 5.85333 35.5024 6.16C35.5024 6.45333 35.4158 6.68667 35.2424 6.86C35.0691 7.02 34.8224 7.1 34.5024 7.1H32.3824V11.22C32.3824 11.86 32.5224 12.34 32.8024 12.66C33.0824 12.98 33.5358 13.14 34.1624 13.14C34.3891 13.14 34.5891 13.12 34.7624 13.08C34.9358 13.04 35.0891 13.0133 35.2224 13C35.3824 12.9867 35.5158 13.04 35.6224 13.16C35.7291 13.2667 35.7824 13.4933 35.7824 13.84C35.7824 14.1067 35.7358 14.3467 35.6424 14.56C35.5624 14.76 35.4091 14.9 35.1824 14.98C35.0091 15.0333 34.7824 15.08 34.5024 15.12C34.2224 15.1733 33.9758 15.2 33.7624 15.2ZM41.6805 15.2C40.5739 15.2 39.6205 14.9933 38.8205 14.58C38.0205 14.1667 37.4005 13.58 36.9605 12.82C36.5339 12.06 36.3205 11.16 36.3205 10.12C36.3205 9.10667 36.5272 8.22 36.9405 7.46C37.3672 6.7 37.9472 6.10667 38.6805 5.68C39.4272 5.24 40.2739 5.02 41.2205 5.02C41.9139 5.02 42.5339 5.13333 43.0805 5.36C43.6405 5.58667 44.1139 5.91333 44.5005 6.34C44.9005 6.76667 45.2005 7.28667 45.4005 7.9C45.6139 8.5 45.7205 9.18 45.7205 9.94C45.7205 10.18 45.6339 10.3667 45.4605 10.5C45.3005 10.62 45.0672 10.68 44.7605 10.68H38.3405V9.24H43.9605L43.6405 9.54C43.6405 8.92667 43.5472 8.41333 43.3605 8C43.1872 7.58667 42.9272 7.27333 42.5805 7.06C42.2472 6.83333 41.8272 6.72 41.3205 6.72C40.7605 6.72 40.2805 6.85333 39.8805 7.12C39.4939 7.37333 39.1939 7.74 38.9805 8.22C38.7805 8.68667 38.6805 9.24667 38.6805 9.9V10.04C38.6805 11.1333 38.9339 11.9533 39.4405 12.5C39.9605 13.0333 40.7205 13.3 41.7205 13.3C42.0672 13.3 42.4539 13.26 42.8805 13.18C43.3205 13.0867 43.7339 12.9333 44.1205 12.72C44.4005 12.56 44.6472 12.4933 44.8605 12.52C45.0739 12.5333 45.2405 12.6067 45.3605 12.74C45.4939 12.8733 45.5739 13.04 45.6005 13.24C45.6272 13.4267 45.5872 13.62 45.4805 13.82C45.3872 14.02 45.2205 14.1933 44.9805 14.34C44.5139 14.6333 43.9739 14.8533 43.3605 15C42.7605 15.1333 42.2005 15.2 41.6805 15.2ZM48.9404 15.16C48.5404 15.16 48.2337 15.0533 48.0204 14.84C47.8071 14.6133 47.7004 14.2933 47.7004 13.88V2C47.7004 1.58667 47.8071 1.27333 48.0204 1.06C48.2337 0.846666 48.5404 0.739999 48.9404 0.739999C49.3404 0.739999 49.6471 0.846666 49.8604 1.06C50.0871 1.27333 50.2004 1.58667 50.2004 2V9.38H50.2404L53.5404 5.9C53.8071 5.63333 54.0404 5.42667 54.2404 5.28C54.4404 5.13333 54.7137 5.06 55.0604 5.06C55.4071 5.06 55.6671 5.15333 55.8404 5.34C56.0271 5.51333 56.1204 5.72667 56.1204 5.98C56.1204 6.23333 56.0004 6.48667 55.7604 6.74L52.2804 10.42V9.38L56.1004 13.5C56.3404 13.7533 56.4471 14.0133 56.4204 14.28C56.4071 14.5333 56.3004 14.7467 56.1004 14.92C55.9004 15.08 55.6471 15.16 55.3404 15.16C54.9671 15.16 54.6671 15.0867 54.4404 14.94C54.2271 14.7933 53.9871 14.5733 53.7204 14.28L50.2404 10.64H50.2004V13.88C50.2004 14.7333 49.7804 15.16 48.9404 15.16ZM59.663 15.16C59.263 15.16 58.9564 15.0533 58.743 14.84C58.5297 14.6133 58.423 14.2933 58.423 13.88V2C58.423 1.58667 58.5297 1.27333 58.743 1.06C58.9564 0.846666 59.263 0.739999 59.663 0.739999C60.063 0.739999 60.3697 0.846666 60.583 1.06C60.8097 1.27333 60.923 1.58667 60.923 2V9.38H60.963L64.263 5.9C64.5297 5.63333 64.763 5.42667 64.963 5.28C65.163 5.13333 65.4364 5.06 65.783 5.06C66.1297 5.06 66.3897 5.15333 66.563 5.34C66.7497 5.51333 66.843 5.72667 66.843 5.98C66.843 6.23333 66.723 6.48667 66.483 6.74L63.003 10.42V9.38L66.823 13.5C67.063 13.7533 67.1697 14.0133 67.143 14.28C67.1297 14.5333 67.023 14.7467 66.823 14.92C66.623 15.08 66.3697 15.16 66.063 15.16C65.6897 15.16 65.3897 15.0867 65.163 14.94C64.9497 14.7933 64.7097 14.5733 64.443 14.28L60.963 10.64H60.923V13.88C60.923 14.7333 60.503 15.16 59.663 15.16Z" fill="#2E5CFF"/>
</svg>
